<?xml version="1.0" standalone="no"?>
<!DOCTYPE svg PUBLIC "-//W3C//DTD SVG 20010904//EN"
 "http://www.w3.org/TR/2001/REC-SVG-20010904/DTD/svg10.dtd">
<svg version="1.0" xmlns="http://www.w3.org/2000/svg"
 width="512.000000pt" height="512.000000pt" viewBox="0 0 512.000000 512.000000"
 preserveAspectRatio="xMidYMid meet">

<g transform="translate(0.000000,512.000000) scale(0.100000,-0.100000)"
fill="#2074ee" stroke="2074ee">
<path d="M2420 5023 c-457 -44 -826 -217 -1140 -532 -279 -279 -458 -623 -540
-1037 -32 -157 -38 -501 -39 -2056 l-1 -1308 365 0 365 0 0 555 0 555 603 0
c642 0 750 5 936 47 158 34 262 72 426 153 361 180 653 478 835 855 103 213
158 403 185 640 24 208 23 272 -11 523 -58 438 -305 886 -647 1176 -288 244
-622 386 -998 426 -89 9 -262 11 -339 3z m250 -763 c119 -15 201 -37 302 -80
290 -124 523 -383 628 -698 83 -250 75 -554 -23 -796 -140 -349 -425 -606
-767 -690 -132 -32 -211 -36 -787 -36 l-583 0 0 634 c0 527 3 648 15 722 105
599 640 1014 1215 944z"/>
</g>
</svg>
